<svg width="116" height="116" viewBox="0 0 116 116" fill="none" xmlns="http://www.w3.org/2000/svg">
<path fill-rule="evenodd" clip-rule="evenodd" d="M41.7209 18.6667L58 2L74.2791 18H97.0698L97.0698 41.3333L114 58L97.0698 74V97.3333H74.2791L58 114L41.7209 98H18.9302V74.6667L2 58L18.9302 42V18.6667H41.7209Z" fill="url(#paint0_linear_717_26)"/>
<path d="M58 2L58.701 1.28681L57.9855 0.58365L57.2846 1.30126L58 2ZM41.7209 18.6667V19.6667H42.1421L42.4363 19.3654L41.7209 18.6667ZM74.2791 18L73.5781 18.7132L73.8699 19H74.2791V18ZM97.0698 18L98.0698 18L98.0698 17H97.0698V18ZM97.0698 41.3333L96.0698 41.3333L96.0698 41.7521L96.3682 42.046L97.0698 41.3333ZM114 58L114.687 58.7268L115.44 58.0147L114.702 57.2874L114 58ZM97.0698 74L96.3829 73.2732L96.0698 73.5691V74H97.0698ZM97.0698 97.3333V98.3333H98.0698V97.3333H97.0698ZM74.2791 97.3333V96.3333H73.8579L73.5637 96.6346L74.2791 97.3333ZM58 114L57.299 114.713L58.0145 115.416L58.7154 114.699L58 114ZM41.7209 98L42.4219 97.2868L42.1301 97H41.7209V98ZM18.9302 98H17.9302V99H18.9302V98ZM18.9302 74.6667H19.9302V74.2479L19.6318 73.954L18.9302 74.6667ZM2 58L1.31314 57.2732L0.559639 57.9853L1.29846 58.7126L2 58ZM18.9302 42L19.6171 42.7268L19.9302 42.4309V42H18.9302ZM18.9302 18.6667V17.6667H17.9302V18.6667H18.9302ZM57.2846 1.30126L41.0056 17.9679L42.4363 19.3654L58.7154 2.69874L57.2846 1.30126ZM74.98 17.2868L58.701 1.28681L57.299 2.71319L73.5781 18.7132L74.98 17.2868ZM97.0698 17H74.2791V19H97.0698V17ZM98.0698 41.3333L98.0698 18L96.0698 18L96.0698 41.3333L98.0698 41.3333ZM114.702 57.2874L97.7713 40.6207L96.3682 42.046L113.298 58.7126L114.702 57.2874ZM97.7566 74.7268L114.687 58.7268L113.313 57.2732L96.3829 73.2732L97.7566 74.7268ZM98.0698 97.3333V74H96.0698V97.3333H98.0698ZM74.2791 98.3333H97.0698V96.3333H74.2791V98.3333ZM58.7154 114.699L74.9944 98.0321L73.5637 96.6346L57.2846 113.301L58.7154 114.699ZM41.02 98.7132L57.299 114.713L58.701 113.287L42.4219 97.2868L41.02 98.7132ZM18.9302 99H41.7209V97H18.9302V99ZM17.9302 74.6667V98H19.9302V74.6667H17.9302ZM1.29846 58.7126L18.2287 75.3793L19.6318 73.954L2.70154 57.2874L1.29846 58.7126ZM18.2434 41.2732L1.31314 57.2732L2.68686 58.7268L19.6171 42.7268L18.2434 41.2732ZM17.9302 18.6667V42H19.9302V18.6667H17.9302ZM41.7209 17.6667H18.9302V19.6667H41.7209V17.6667Z" fill="url(#paint1_linear_717_26)"/>
<path d="M88.3945 42.043C89.1211 42.7695 89.1211 44.1016 88.3945 44.8281L83.1875 50.0352C82.3398 50.7617 81.3711 51.125 80.4023 51.125H33.7812C32.0859 51.125 30.875 49.9141 30.875 48.2188V38.5312C30.875 36.957 32.0859 35.625 33.7812 35.625H54.125V33.6875C54.125 32.7188 54.9727 31.75 56.0625 31.75H59.9375C60.9062 31.75 61.875 32.7188 61.875 33.6875V35.625H80.4023C81.3711 35.625 82.4609 36.1094 83.1875 36.8359L88.3945 42.043ZM54.125 91.8125V78.25H61.875V91.8125C61.875 92.9023 60.9062 93.75 59.9375 93.75H56.0625C54.9727 93.75 54.125 92.9023 54.125 91.8125ZM82.2188 58.875C83.793 58.875 85.125 60.207 85.125 61.7812V71.4688C85.125 73.1641 83.793 74.375 82.2188 74.375H35.4766C34.5078 74.375 33.5391 74.0117 32.8125 73.2852L27.4844 68.0781C26.7578 67.3516 26.7578 66.0195 27.4844 65.293L32.8125 60.0859C33.5391 59.3594 34.5078 58.875 35.4766 58.875H54.125V55H61.875V58.875H82.2188Z" fill="white"/>
<defs>
<linearGradient id="paint0_linear_717_26" x1="20" y1="18.5" x2="97.5" y2="96" gradientUnits="userSpaceOnUse">
<stop stop-color="#FFFF4D"/>
<stop offset="0.648826" stop-color="#EC8972"/>
</linearGradient>
<linearGradient id="paint1_linear_717_26" x1="58" y1="2" x2="58" y2="114" gradientUnits="userSpaceOnUse">
<stop stop-color="#ED8A73"/>
<stop offset="1" stop-color="#FCEB54"/>
</linearGradient>
</defs>
</svg>
