<svg width="116" height="120" viewBox="0 0 116 120" fill="none" xmlns="http://www.w3.org/2000/svg">
<rect x="0.724319" y="62" width="81" height="81" transform="rotate(-45 0.724319 62)" fill="url(#paint0_linear_715_23)" stroke="url(#paint1_linear_715_23)"/>
<path d="M31.9375 101.98L38.9102 74.4883L49.4688 84.8477L44.4883 104.969C43.6914 107.957 41.1016 109.75 38.3125 109.75C37.7148 109.75 37.1172 109.75 36.7188 109.75C33.332 108.754 31.1406 105.367 31.9375 101.98ZM34.9258 62.9336C34.5273 64.5273 32.7344 65.5234 30.9414 65.125L18.3906 62.1367C16.5977 61.7383 15.6016 59.9453 16 58.3516L20.9805 38.8281C23.1719 30.4609 32.1367 25.2812 40.9023 27.2734C42.4961 27.8711 43.6914 29.4648 43.293 31.0586L34.9258 62.9336ZM89.3125 39.625C90.9062 39.625 92.5 41.2188 92.3008 42.8125V106.762C92.3008 108.355 90.9062 109.949 89.1133 109.949H85.9258C84.332 109.949 82.7383 108.355 82.7383 106.762V58.9492H73.1758C71.582 58.9492 69.9883 58.1523 68.793 56.957L64.2109 52.5742L60.4258 68.3125C60.2266 68.5117 60.2266 68.5117 60.2266 68.7109L69.5898 77.875C71.9805 80.4648 73.375 83.6523 73.375 87.0391V103.375C73.375 106.961 70.3867 109.75 67 109.75C63.4141 109.75 60.625 106.961 60.625 103.375V87.0391L43.293 69.707C42.0977 68.5117 41.5 66.918 41.5 65.3242C41.5 64.7266 41.5 64.1289 41.5 63.7305L46.8789 42.2148C48.2734 37.0352 52.8555 33.25 58.2344 33.25C61.4219 33.25 64.4102 34.6445 66.6016 36.8359L75.9648 46H82.9375V42.8125C82.9375 41.2188 84.332 39.625 86.125 39.625H89.3125ZM63.8125 26.875C58.4336 26.875 54.25 22.6914 54.25 17.3125C54.25 12.1328 58.4336 7.75 63.8125 7.75C68.9922 7.75 73.375 12.1328 73.375 17.3125C73.375 22.6914 68.9922 26.875 63.8125 26.875Z" fill="white"/>
<defs>
<linearGradient id="paint0_linear_715_23" x1="41.0172" y1="62" x2="41.0172" y2="115.021" gradientUnits="userSpaceOnUse">
<stop stop-color="#0AADFF"/>
<stop offset="1" stop-color="#EAAAEF"/>
</linearGradient>
<linearGradient id="paint1_linear_715_23" x1="41.0172" y1="62" x2="41.0172" y2="144" gradientUnits="userSpaceOnUse">
<stop stop-color="#EAAAEF"/>
<stop offset="0.0001" stop-color="#EAAAEF"/>
<stop offset="1" stop-color="#0AADFF"/>
</linearGradient>
</defs>
</svg>
